<?xml version="1.0" encoding="utf-8"?>
<!-- Generator: Adobe Illustrator 22.0.1, SVG Export Plug-In . SVG Version: 6.00 Build 0)  -->
<svg version="1.1" xmlns="http://www.w3.org/2000/svg" xmlns:xlink="http://www.w3.org/1999/xlink" x="0px" y="0px"
	 viewBox="0 0 100 30.5" style="enable-background:new 0 0 100 30.5;" xml:space="preserve">
<style type="text/css">
	.st0{display:none;}
	.st1{display:inline;}
	.st2{clip-path:url(#SVGID_2_);}
	.st3{clip-path:url(#SVGID_4_);fill:#6D717F;}
	.st4{clip-path:url(#SVGID_6_);}
	.st5{clip-path:url(#SVGID_8_);fill:#6D717F;}
	.st6{clip-path:url(#SVGID_10_);}
	.st7{clip-path:url(#SVGID_12_);fill:#6D717F;}
	.st8{clip-path:url(#SVGID_14_);}
	.st9{clip-path:url(#SVGID_16_);fill:#6D717F;}
	.st10{clip-path:url(#SVGID_18_);}
	.st11{clip-path:url(#SVGID_20_);fill:#6D717F;}
	.st12{clip-path:url(#SVGID_22_);}
	.st13{clip-path:url(#SVGID_24_);fill:#6D717F;}
	.st14{clip-path:url(#SVGID_26_);}
	.st15{clip-path:url(#SVGID_28_);fill:#6D717F;}
</style>
<g id="레이어_1" class="st0">
	<g class="st1">
		<defs>
			<path id="SVGID_1_" d="M21.3,16.2L6.7,24.2c-0.5,0.3-1.1,0.1-1.4-0.4c-0.1-0.2-0.1-0.3-0.1-0.5V7.2c0-0.6,0.5-1,1-1
				c0.2,0,0.4,0,0.5,0.1l14.5,8.1c0.5,0.3,0.7,0.9,0.4,1.4C21.5,15.9,21.4,16.1,21.3,16.2z"/>
		</defs>
		<clipPath id="SVGID_2_">
			<use xlink:href="#SVGID_1_"  style="overflow:visible;"/>
		</clipPath>
		<g class="st2">
			<defs>
				<rect id="SVGID_3_" x="-205" y="-494" width="375" height="812"/>
			</defs>
			<clipPath id="SVGID_4_">
				<use xlink:href="#SVGID_3_"  style="overflow:visible;"/>
			</clipPath>
			<rect x="0.2" y="1.2" class="st3" width="26.6" height="28.2"/>
		</g>
	</g>
	<g class="st1">
		<defs>
			<path id="SVGID_5_" d="M45.7,10.7V7.7h0.5v0.4c0.2-0.3,0.5-0.5,1-0.5c0.2,0,0.3,0,0.5,0.1s0.3,0.1,0.3,0.2s0.1,0.2,0.2,0.4
				c0,0.1,0,0.3,0,0.5v1.8h-0.5V8.9c0-0.2,0-0.4-0.1-0.5c0-0.1-0.1-0.2-0.2-0.2c-0.1-0.1-0.2-0.1-0.4-0.1c-0.2,0-0.4,0.1-0.6,0.2
				c-0.2,0.1-0.2,0.4-0.2,0.8v1.6H45.7z M42.9,9.2c0,0.4,0.1,0.7,0.3,0.8c0.2,0.2,0.4,0.3,0.6,0.3c0.3,0,0.5-0.1,0.6-0.3
				c0.2-0.2,0.3-0.5,0.3-0.9c0-0.4-0.1-0.6-0.3-0.8c-0.2-0.2-0.4-0.3-0.6-0.3c-0.3,0-0.5,0.1-0.6,0.3C43,8.6,42.9,8.8,42.9,9.2z
				 M42.4,9.2c0-0.5,0.2-0.9,0.5-1.2c0.3-0.2,0.6-0.3,0.9-0.3c0.4,0,0.8,0.1,1,0.4c0.3,0.3,0.4,0.6,0.4,1.1c0,0.4-0.1,0.7-0.2,0.9
				c-0.1,0.2-0.3,0.4-0.5,0.5c-0.2,0.1-0.5,0.2-0.7,0.2c-0.4,0-0.8-0.1-1-0.4C42.5,10.1,42.4,9.7,42.4,9.2z M40.7,10.2l0.1,0.4
				c-0.1,0-0.3,0-0.4,0c-0.2,0-0.3,0-0.4-0.1c-0.1-0.1-0.2-0.1-0.2-0.2s-0.1-0.3-0.1-0.6V8.1h-0.4V7.7h0.4V7l0.5-0.3v1h0.5v0.4h-0.5
				v1.7c0,0.1,0,0.2,0,0.3c0,0,0,0.1,0.1,0.1c0,0,0.1,0,0.2,0C40.6,10.3,40.6,10.2,40.7,10.2z M38.5,10.7V7.7H39v2.9H38.5z
				 M38.5,7.2V6.6H39v0.6H38.5z M36.6,10.2l0.1,0.4c-0.1,0-0.3,0-0.4,0c-0.2,0-0.3,0-0.4-0.1c-0.1-0.1-0.2-0.1-0.2-0.2
				s-0.1-0.3-0.1-0.6V8.1h-0.4V7.7h0.4V7l0.5-0.3v1h0.5v0.4h-0.5v1.7c0,0.1,0,0.2,0,0.3c0,0,0,0.1,0.1,0.1c0,0,0.1,0,0.2,0
				C36.4,10.3,36.5,10.2,36.6,10.2z M32.8,8.9h1.7c0-0.2-0.1-0.4-0.2-0.6c-0.2-0.2-0.4-0.3-0.6-0.3c-0.2,0-0.4,0.1-0.6,0.2
				C32.9,8.5,32.8,8.7,32.8,8.9z M34.5,9.7L35,9.8c-0.1,0.3-0.2,0.5-0.5,0.7c-0.2,0.2-0.5,0.2-0.9,0.2c-0.4,0-0.8-0.1-1.1-0.4
				c-0.3-0.3-0.4-0.6-0.4-1.1c0-0.5,0.1-0.9,0.4-1.1c0.3-0.3,0.6-0.4,1-0.4c0.4,0,0.7,0.1,1,0.4C34.9,8.3,35,8.7,35,9.2
				c0,0,0,0.1,0,0.1h-2.3c0,0.3,0.1,0.6,0.3,0.7c0.2,0.2,0.4,0.3,0.6,0.3c0.2,0,0.3,0,0.5-0.1C34.3,10.1,34.4,9.9,34.5,9.7z M30,9.1
				V8.6l1.8,0v1.5c-0.3,0.2-0.6,0.4-0.8,0.5c-0.3,0.1-0.6,0.2-0.9,0.2c-0.4,0-0.8-0.1-1.1-0.3c-0.3-0.2-0.6-0.4-0.8-0.7
				c-0.2-0.3-0.3-0.7-0.3-1.1c0-0.4,0.1-0.8,0.3-1.1c0.2-0.3,0.4-0.6,0.7-0.8c0.3-0.2,0.7-0.2,1.1-0.2c0.3,0,0.6,0,0.8,0.1
				c0.2,0.1,0.4,0.2,0.6,0.4c0.1,0.2,0.2,0.4,0.3,0.7l-0.5,0.1c-0.1-0.2-0.1-0.4-0.2-0.5c-0.1-0.1-0.2-0.2-0.4-0.3
				C30.4,7.1,30.2,7,30,7c-0.3,0-0.5,0-0.7,0.1c-0.2,0.1-0.3,0.2-0.4,0.3c-0.1,0.1-0.2,0.3-0.3,0.4c-0.1,0.3-0.2,0.5-0.2,0.8
				c0,0.4,0.1,0.7,0.2,0.9s0.3,0.4,0.6,0.5c0.2,0.1,0.5,0.2,0.8,0.2c0.2,0,0.5,0,0.7-0.1c0.2-0.1,0.4-0.2,0.5-0.3V9.1H30z"/>
		</defs>
		<clipPath id="SVGID_6_">
			<use xlink:href="#SVGID_5_"  style="overflow:visible;"/>
		</clipPath>
		<g class="st4">
			<defs>
				<rect id="SVGID_7_" x="-205" y="-494" width="375" height="812"/>
			</defs>
			<clipPath id="SVGID_8_">
				<use xlink:href="#SVGID_7_"  style="overflow:visible;"/>
			</clipPath>
			<rect x="22.9" y="1.6" class="st5" width="30.2" height="14.2"/>
		</g>
	</g>
	<g class="st1">
		<defs>
			<path id="SVGID_9_" d="M87.7,15.7h1.9l1.6,4.5l1.5-4.5h1.8l-2.3,6.1l-0.4,1.1c-0.2,0.4-0.3,0.7-0.4,0.9c-0.1,0.2-0.3,0.4-0.5,0.5
				c-0.2,0.1-0.4,0.2-0.7,0.3s-0.6,0.1-0.9,0.1c-0.3,0-0.7,0-1-0.1l-0.2-1.3c0.3,0.1,0.5,0.1,0.7,0.1c0.4,0,0.7-0.1,0.9-0.3
				s0.3-0.5,0.4-0.9L87.7,15.7z M85.7,19c-0.2,0.1-0.6,0.2-1.1,0.3s-0.8,0.2-0.9,0.3c-0.2,0.2-0.3,0.4-0.3,0.6
				c0,0.2,0.1,0.4,0.3,0.6c0.2,0.2,0.4,0.3,0.7,0.3c0.3,0,0.6-0.1,0.9-0.3c0.2-0.2,0.3-0.3,0.4-0.6c0-0.1,0.1-0.4,0.1-0.8V19z
				 M83.3,17.6l-1.6-0.3c0.2-0.6,0.5-1.1,0.9-1.4c0.4-0.3,1.1-0.4,1.9-0.4c0.8,0,1.4,0.1,1.7,0.3c0.4,0.2,0.6,0.4,0.8,0.7
				c0.2,0.3,0.2,0.8,0.2,1.5l0,2c0,0.6,0,1,0.1,1.2c0.1,0.3,0.2,0.6,0.3,0.9H86c0-0.1-0.1-0.3-0.2-0.5c0-0.1,0-0.2-0.1-0.2
				c-0.3,0.3-0.6,0.5-1,0.6c-0.3,0.1-0.7,0.2-1.1,0.2c-0.7,0-1.2-0.2-1.6-0.5c-0.4-0.4-0.6-0.8-0.6-1.4c0-0.4,0.1-0.7,0.3-1
				c0.2-0.3,0.4-0.5,0.7-0.6c0.3-0.2,0.8-0.3,1.4-0.4c0.8-0.1,1.4-0.3,1.7-0.4v-0.2c0-0.3-0.1-0.6-0.2-0.7c-0.2-0.1-0.5-0.2-0.9-0.2
				c-0.3,0-0.6,0.1-0.7,0.2C83.6,17.1,83.4,17.3,83.3,17.6z M79,22v-8.8h1.7V22H79z M72.9,14.7v2.5h1c0.7,0,1.2,0,1.4-0.1
				s0.4-0.2,0.6-0.4c0.1-0.2,0.2-0.4,0.2-0.7c0-0.3-0.1-0.6-0.3-0.8c-0.2-0.2-0.4-0.3-0.7-0.4c-0.2,0-0.7-0.1-1.3-0.1H72.9z
				 M71.1,22v-8.8H74c1.1,0,1.8,0,2.2,0.1c0.5,0.1,1,0.4,1.3,0.9s0.5,1,0.5,1.7c0,0.5-0.1,1-0.3,1.4c-0.2,0.4-0.5,0.7-0.8,0.9
				c-0.3,0.2-0.6,0.3-1,0.4c-0.4,0.1-1.1,0.1-1.9,0.1h-1.2V22H71.1z M65.4,18.3c0-0.5-0.1-0.9-0.4-1.1c-0.2-0.3-0.5-0.4-0.9-0.4
				c-0.4,0-0.7,0.1-0.9,0.4c-0.2,0.3-0.4,0.6-0.4,1.1H65.4z M65.3,20l1.7,0.3c-0.2,0.6-0.6,1.1-1.1,1.4c-0.5,0.3-1.1,0.5-1.8,0.5
				c-1.1,0-2-0.4-2.5-1.1c-0.4-0.6-0.6-1.3-0.6-2.2c0-1.1,0.3-1.9,0.9-2.5s1.3-0.9,2.2-0.9c1,0,1.7,0.3,2.3,0.9
				c0.6,0.6,0.8,1.6,0.8,2.9h-4.4c0,0.5,0.2,0.9,0.4,1.2c0.3,0.3,0.6,0.4,1,0.4c0.3,0,0.5-0.1,0.7-0.2C65.1,20.6,65.3,20.3,65.3,20z
				 M58.5,22v-8.8h1.7V22H58.5z M52.7,18.7c0,0.7,0.1,1.2,0.4,1.5s0.6,0.5,1,0.5c0.4,0,0.8-0.2,1.1-0.5c0.3-0.3,0.4-0.8,0.4-1.4
				c0-0.7-0.1-1.2-0.4-1.5s-0.6-0.5-1.1-0.5c-0.4,0-0.8,0.2-1,0.5C52.8,17.6,52.7,18.1,52.7,18.7z M51.1,22.5l2,0.2
				c0,0.2,0.1,0.4,0.2,0.5c0.2,0.1,0.4,0.2,0.8,0.2c0.5,0,0.8-0.1,1-0.2c0.2-0.1,0.3-0.2,0.3-0.4c0.1-0.1,0.1-0.4,0.1-0.8V21
				c-0.5,0.7-1.2,1-2,1c-0.9,0-1.6-0.4-2.1-1.1c-0.4-0.6-0.6-1.3-0.6-2.1c0-1.1,0.3-1.9,0.8-2.5c0.5-0.6,1.2-0.8,2-0.8
				c0.8,0,1.5,0.3,2,1v-0.9h1.6v5.7c0,0.8-0.1,1.3-0.2,1.7c-0.1,0.4-0.3,0.7-0.5,0.9c-0.2,0.2-0.5,0.4-0.9,0.5
				c-0.4,0.1-0.9,0.2-1.5,0.2c-1.1,0-1.9-0.2-2.4-0.6c-0.5-0.4-0.7-0.8-0.7-1.4C51.1,22.6,51.1,22.5,51.1,22.5z M45.5,18.9
				c0,0.6,0.2,1.1,0.5,1.5c0.3,0.3,0.7,0.5,1.1,0.5c0.5,0,0.8-0.2,1.1-0.5c0.3-0.3,0.5-0.8,0.5-1.5c0-0.6-0.2-1.1-0.5-1.4
				c-0.3-0.3-0.7-0.5-1.1-0.5c-0.5,0-0.8,0.2-1.1,0.5C45.6,17.7,45.5,18.2,45.5,18.9z M43.7,18.8c0-0.6,0.1-1.1,0.4-1.6
				c0.3-0.5,0.7-0.9,1.2-1.2c0.5-0.3,1.1-0.4,1.7-0.4c1,0,1.8,0.3,2.4,0.9c0.6,0.6,1,1.4,1,2.4c0,1-0.3,1.8-1,2.4
				c-0.6,0.6-1.4,1-2.4,1c-0.6,0-1.2-0.1-1.7-0.4c-0.5-0.3-1-0.7-1.2-1.2C43.8,20.1,43.7,19.5,43.7,18.8z M38.2,18.9
				c0,0.6,0.2,1.1,0.5,1.5c0.3,0.3,0.7,0.5,1.1,0.5c0.5,0,0.8-0.2,1.1-0.5s0.5-0.8,0.5-1.5c0-0.6-0.2-1.1-0.5-1.4s-0.7-0.5-1.1-0.5
				c-0.5,0-0.8,0.2-1.1,0.5C38.4,17.7,38.2,18.2,38.2,18.9z M36.4,18.8c0-0.6,0.1-1.1,0.4-1.6c0.3-0.5,0.7-0.9,1.2-1.2
				c0.5-0.3,1.1-0.4,1.7-0.4c1,0,1.8,0.3,2.4,0.9c0.6,0.6,1,1.4,1,2.4c0,1-0.3,1.8-1,2.4c-0.6,0.6-1.4,1-2.4,1
				c-0.6,0-1.2-0.1-1.7-0.4c-0.5-0.3-1-0.7-1.2-1.2C36.6,20.1,36.4,19.5,36.4,18.8z M31.7,18.8v-1.5h3.9v3.5c-0.4,0.4-0.9,0.7-1.7,1
				c-0.7,0.3-1.5,0.4-2.2,0.4c-0.9,0-1.8-0.2-2.5-0.6c-0.7-0.4-1.2-0.9-1.6-1.7c-0.4-0.7-0.5-1.5-0.5-2.3c0-0.9,0.2-1.7,0.6-2.4
				c0.4-0.7,1-1.3,1.7-1.6c0.6-0.3,1.3-0.4,2.2-0.4c1.1,0,2,0.2,2.6,0.7c0.6,0.5,1,1.1,1.2,1.9L33.7,16c-0.1-0.4-0.4-0.8-0.7-1
				c-0.4-0.3-0.8-0.4-1.3-0.4c-0.8,0-1.4,0.2-1.9,0.7c-0.5,0.5-0.7,1.2-0.7,2.2c0,1,0.2,1.8,0.7,2.4c0.5,0.5,1.1,0.8,1.9,0.8
				c0.4,0,0.8-0.1,1.2-0.2c0.4-0.1,0.7-0.3,1-0.5v-1.1H31.7z"/>
		</defs>
		<clipPath id="SVGID_10_">
			<use xlink:href="#SVGID_9_"  style="overflow:visible;"/>
		</clipPath>
		<g class="st6">
			<defs>
				<rect id="SVGID_11_" x="-205" y="-494" width="375" height="812"/>
			</defs>
			<clipPath id="SVGID_12_">
				<use xlink:href="#SVGID_11_"  style="overflow:visible;"/>
			</clipPath>
			<rect x="22.2" y="8.1" class="st7" width="77.3" height="21.5"/>
		</g>
	</g>
</g>
<g id="레이어_2">
	<g>
		<defs>
			<path id="SVGID_13_" d="M22.4,16.1c0-1.7,0.9-3.3,2.4-4.2c-0.9-1.3-2.5-2.1-4.1-2.2c-1.7-0.2-3.4,1-4.3,1c-0.9,0-2.3-1-3.7-1
				c-1.9,0.1-3.7,1.1-4.6,2.8c-2,3.4-0.5,8.4,1.4,11.1c1,1.3,2.1,2.8,3.5,2.8c1.4-0.1,2-0.9,3.7-0.9c1.7,0,2.2,0.9,3.7,0.9
				c1.5,0,2.5-1.3,3.4-2.7c0.7-1,1.2-2,1.6-3.1C23.5,19.8,22.4,18,22.4,16.1z"/>
		</defs>
		<clipPath id="SVGID_14_">
			<use xlink:href="#SVGID_13_"  style="overflow:visible;"/>
		</clipPath>
		<g class="st8">
			<defs>
				<rect id="SVGID_15_" x="-206" y="-433" width="375" height="812"/>
			</defs>
			<clipPath id="SVGID_16_">
				<use xlink:href="#SVGID_15_"  style="overflow:visible;"/>
			</clipPath>
			<rect x="2.2" y="4.7" class="st9" width="28.2" height="26.7"/>
		</g>
	</g>
	<g>
		<defs>
			<path id="SVGID_17_" d="M19.5,7.9c0.8-1,1.2-2.3,1.1-3.5c-1.3,0.1-2.5,0.7-3.3,1.7c-0.8,0.9-1.3,2.2-1.2,3.4
				C17.5,9.5,18.7,8.9,19.5,7.9z"/>
		</defs>
		<clipPath id="SVGID_18_">
			<use xlink:href="#SVGID_17_"  style="overflow:visible;"/>
		</clipPath>
		<g class="st10">
			<defs>
				<rect id="SVGID_19_" x="-206" y="-433" width="375" height="812"/>
			</defs>
			<clipPath id="SVGID_20_">
				<use xlink:href="#SVGID_19_"  style="overflow:visible;"/>
			</clipPath>
			<rect x="11.2" y="-0.6" class="st11" width="14.5" height="15.1"/>
		</g>
	</g>
	<g>
		<defs>
			<path id="SVGID_21_" d="M75,8.9h1.8c0-0.3-0.1-0.4-0.2-0.6C76.5,8.1,76.2,8,76,8c-0.3,0-0.5,0.1-0.6,0.2
				C75.1,8.4,75.1,8.7,75,8.9z M76.8,9.7l0.6,0.1c-0.1,0.3-0.3,0.5-0.5,0.7c-0.2,0.2-0.6,0.3-0.9,0.3c-0.5,0-0.9-0.1-1.1-0.4
				c-0.3-0.3-0.4-0.7-0.4-1.1c0-0.5,0.1-0.9,0.4-1.2c0.3-0.3,0.6-0.4,1.1-0.4c0.4,0,0.8,0.1,1.1,0.4s0.4,0.7,0.4,1.2
				c0,0,0,0.1,0,0.1H75c0,0.3,0.1,0.6,0.3,0.8c0.2,0.2,0.4,0.3,0.7,0.3c0.2,0,0.4,0,0.5-0.1C76.6,10.1,76.8,10,76.8,9.7z M71.3,10.7
				V6.5h0.5V8c0.3-0.3,0.6-0.4,1-0.4c0.2,0,0.4,0,0.6,0.1c0.2,0.1,0.3,0.2,0.4,0.4c0.1,0.2,0.1,0.4,0.1,0.7v1.9h-0.5V8.8
				c0-0.3-0.1-0.4-0.2-0.6c-0.1-0.1-0.3-0.2-0.5-0.2c-0.2,0-0.3,0-0.5,0.1c-0.1,0.1-0.2,0.2-0.3,0.3c-0.1,0.1-0.1,0.3-0.1,0.6v1.7
				H71.3z M70.9,10.3l0.1,0.5c-0.2,0-0.3,0-0.4,0c-0.2,0-0.4,0-0.5-0.1c-0.1-0.1-0.2-0.1-0.2-0.2c0-0.1-0.1-0.3-0.1-0.6V8.1h-0.4
				V7.7h0.4V6.9l0.5-0.3v1.1h0.6v0.4h-0.6v1.8c0,0.1,0,0.2,0,0.3s0.1,0.1,0.1,0.1c0,0,0.1,0,0.2,0C70.7,10.3,70.8,10.3,70.9,10.3z
				 M64.8,10.7v-3h0.5v0.4c0.2-0.3,0.6-0.5,1-0.5c0.2,0,0.4,0,0.5,0.1C67,7.8,67.1,7.9,67.2,8c0.1,0.1,0.1,0.2,0.2,0.4
				c0,0.1,0,0.3,0,0.5v1.9h-0.5V8.9c0-0.2,0-0.4-0.1-0.5c0-0.1-0.1-0.2-0.2-0.2c-0.1-0.1-0.2-0.1-0.4-0.1c-0.2,0-0.4,0.1-0.6,0.2
				c-0.2,0.1-0.3,0.4-0.3,0.8v1.7H64.8z M61.8,9.2c0,0.4,0.1,0.7,0.3,0.9c0.2,0.2,0.4,0.3,0.7,0.3c0.3,0,0.5-0.1,0.7-0.3
				c0.2-0.2,0.3-0.5,0.3-0.9c0-0.4-0.1-0.7-0.3-0.8c-0.2-0.2-0.4-0.3-0.7-0.3c-0.3,0-0.5,0.1-0.7,0.3C61.9,8.5,61.8,8.8,61.8,9.2z
				 M61.2,9.2c0-0.6,0.2-1,0.5-1.2c0.3-0.2,0.6-0.3,1-0.3c0.4,0,0.8,0.1,1.1,0.4c0.3,0.3,0.4,0.6,0.4,1.1c0,0.4-0.1,0.7-0.2,0.9
				s-0.3,0.4-0.5,0.5c-0.2,0.1-0.5,0.2-0.8,0.2c-0.5,0-0.8-0.1-1.1-0.4C61.4,10.1,61.2,9.7,61.2,9.2z M56.9,9.2
				c0,0.4,0.1,0.7,0.3,0.9c0.2,0.2,0.4,0.3,0.6,0.3c0.2,0,0.4-0.1,0.6-0.3c0.2-0.2,0.3-0.5,0.3-0.8c0-0.4-0.1-0.7-0.3-0.9
				c-0.2-0.2-0.4-0.3-0.6-0.3c-0.2,0-0.4,0.1-0.6,0.3S56.9,8.8,56.9,9.2z M58.6,10.7v-0.4c-0.2,0.3-0.5,0.4-0.9,0.4
				c-0.3,0-0.5-0.1-0.7-0.2s-0.4-0.3-0.5-0.6c-0.1-0.2-0.2-0.5-0.2-0.8c0-0.3,0.1-0.6,0.2-0.8C56.6,8.1,56.8,8,57,7.8
				c0.2-0.1,0.5-0.2,0.7-0.2c0.2,0,0.4,0,0.5,0.1c0.2,0.1,0.3,0.2,0.4,0.3V6.5h0.5v4.2H58.6z M55.3,9.2c-0.2,0.1-0.5,0.1-0.9,0.2
				c-0.2,0-0.4,0.1-0.5,0.1c-0.1,0-0.2,0.1-0.2,0.2s-0.1,0.2-0.1,0.2c0,0.1,0.1,0.3,0.2,0.3c0.1,0.1,0.3,0.1,0.5,0.1
				c0.2,0,0.4,0,0.6-0.1c0.2-0.1,0.3-0.2,0.4-0.4c0.1-0.1,0.1-0.3,0.1-0.5V9.2z M55.3,10.3c-0.2,0.2-0.4,0.3-0.6,0.3
				c-0.2,0.1-0.4,0.1-0.6,0.1c-0.4,0-0.6-0.1-0.8-0.2c-0.2-0.2-0.3-0.4-0.3-0.6c0-0.1,0-0.3,0.1-0.4c0.1-0.1,0.2-0.2,0.3-0.3
				s0.2-0.1,0.4-0.2C53.9,9,54.1,9,54.3,9c0.4,0,0.8-0.1,1-0.2c0-0.1,0-0.1,0-0.1c0-0.2-0.1-0.4-0.2-0.4c-0.1-0.1-0.3-0.2-0.6-0.2
				c-0.3,0-0.4,0-0.6,0.1c-0.1,0.1-0.2,0.2-0.3,0.4l-0.5-0.1c0-0.2,0.1-0.4,0.2-0.5c0.1-0.1,0.3-0.2,0.5-0.3
				c0.2-0.1,0.5-0.1,0.7-0.1c0.3,0,0.5,0,0.7,0.1c0.2,0.1,0.3,0.1,0.4,0.2c0.1,0.1,0.1,0.2,0.2,0.3c0,0.1,0,0.2,0,0.5v0.7
				c0,0.5,0,0.8,0,0.9c0,0.1,0.1,0.2,0.1,0.4h-0.6C55.4,10.6,55.3,10.5,55.3,10.3z M50.2,9.2c0,0.4,0.1,0.7,0.3,0.9
				c0.2,0.2,0.4,0.3,0.7,0.3c0.3,0,0.5-0.1,0.7-0.3c0.2-0.2,0.3-0.5,0.3-0.9c0-0.4-0.1-0.7-0.3-0.8c-0.2-0.2-0.4-0.3-0.7-0.3
				c-0.3,0-0.5,0.1-0.7,0.3C50.3,8.5,50.2,8.8,50.2,9.2z M49.7,9.2c0-0.6,0.2-1,0.5-1.2c0.3-0.2,0.6-0.3,1-0.3
				c0.4,0,0.8,0.1,1.1,0.4c0.3,0.3,0.4,0.6,0.4,1.1c0,0.4-0.1,0.7-0.2,0.9s-0.3,0.4-0.5,0.5c-0.2,0.1-0.5,0.2-0.8,0.2
				c-0.5,0-0.8-0.1-1.1-0.4C49.8,10.1,49.7,9.7,49.7,9.2z M48.6,10.7V6.5h0.5v4.2H48.6z M45.3,10.7v-3h0.5v0.4
				c0.2-0.3,0.6-0.5,1-0.5c0.2,0,0.4,0,0.5,0.1c0.2,0.1,0.3,0.2,0.4,0.3c0.1,0.1,0.1,0.2,0.2,0.4c0,0.1,0,0.3,0,0.5v1.9h-0.5V8.9
				c0-0.2,0-0.4-0.1-0.5c0-0.1-0.1-0.2-0.2-0.2c-0.1-0.1-0.2-0.1-0.4-0.1c-0.2,0-0.4,0.1-0.6,0.2c-0.2,0.1-0.3,0.4-0.3,0.8v1.7H45.3
				z M41.5,10.7l-1-3h0.6l0.5,1.7l0.2,0.6c0,0,0.1-0.2,0.2-0.6l0.5-1.8h0.6l0.5,1.8l0.2,0.6l0.2-0.6l0.6-1.7H45l-1,3h-0.6l-0.5-1.8
				l-0.1-0.5l-0.7,2.3H41.5z M38,9.2c0,0.4,0.1,0.7,0.3,0.9c0.2,0.2,0.4,0.3,0.7,0.3c0.3,0,0.5-0.1,0.7-0.3c0.2-0.2,0.3-0.5,0.3-0.9
				c0-0.4-0.1-0.7-0.3-0.8c-0.2-0.2-0.4-0.3-0.7-0.3c-0.3,0-0.5,0.1-0.7,0.3C38.1,8.5,38,8.8,38,9.2z M37.4,9.2c0-0.6,0.2-1,0.5-1.2
				c0.3-0.2,0.6-0.3,1-0.3c0.4,0,0.8,0.1,1.1,0.4c0.3,0.3,0.4,0.6,0.4,1.1c0,0.4-0.1,0.7-0.2,0.9s-0.3,0.4-0.5,0.5
				c-0.2,0.1-0.5,0.2-0.8,0.2c-0.5,0-0.8-0.1-1.1-0.4C37.5,10.1,37.4,9.7,37.4,9.2z M33.9,10.2h1c0.3,0,0.5,0,0.7-0.1
				c0.2-0.1,0.3-0.1,0.4-0.2c0.1-0.1,0.2-0.3,0.3-0.5c0.1-0.2,0.1-0.5,0.1-0.8c0-0.4-0.1-0.8-0.2-1c-0.2-0.2-0.3-0.4-0.6-0.5
				C35.4,7.1,35.2,7,34.8,7h-0.9V10.2z M33.3,10.7V6.5h1.5c0.3,0,0.6,0,0.8,0.1c0.3,0.1,0.5,0.2,0.7,0.3c0.2,0.2,0.4,0.4,0.5,0.7
				c0.1,0.3,0.2,0.6,0.2,1c0,0.3,0,0.6-0.1,0.8c-0.1,0.2-0.2,0.4-0.3,0.6c-0.1,0.2-0.3,0.3-0.4,0.4c-0.1,0.1-0.3,0.2-0.5,0.2
				c-0.2,0-0.4,0.1-0.7,0.1H33.3z"/>
		</defs>
		<clipPath id="SVGID_22_">
			<use xlink:href="#SVGID_21_"  style="overflow:visible;"/>
		</clipPath>
		<g class="st12">
			<defs>
				<rect id="SVGID_23_" x="-206" y="-433" width="375" height="812"/>
			</defs>
			<clipPath id="SVGID_24_">
				<use xlink:href="#SVGID_23_"  style="overflow:visible;"/>
			</clipPath>
			<rect x="28.3" y="1.5" class="st13" width="54.1" height="14.2"/>
		</g>
	</g>
	<g>
		<defs>
			<path id="SVGID_25_" d="M89.2,18.8c0-0.5-0.2-0.9-0.4-1.2c-0.3-0.3-0.6-0.4-1-0.4c-0.4,0-0.7,0.1-1,0.4c-0.3,0.3-0.4,0.7-0.4,1.1
				H89.2z M89.1,20.6l1.8,0.3c-0.2,0.6-0.6,1.1-1.1,1.5c-0.5,0.3-1.1,0.5-1.9,0.5c-1.2,0-2.1-0.4-2.7-1.1c-0.5-0.6-0.7-1.4-0.7-2.3
				c0-1.1,0.3-2,0.9-2.6c0.6-0.6,1.4-0.9,2.3-0.9c1,0,1.9,0.3,2.5,1c0.6,0.7,0.9,1.7,0.9,3h-4.6c0,0.5,0.2,0.9,0.4,1.2
				c0.3,0.3,0.6,0.4,1.1,0.4c0.3,0,0.5-0.1,0.7-0.2C88.8,21.1,89,20.9,89.1,20.6z M82.1,22.7h-1.8V16H82V17c0.3-0.4,0.6-0.7,0.8-0.9
				c0.2-0.1,0.5-0.2,0.8-0.2c0.4,0,0.8,0.1,1.2,0.3l-0.6,1.5c-0.3-0.2-0.6-0.3-0.9-0.3c-0.3,0-0.5,0.1-0.7,0.2s-0.3,0.4-0.4,0.7
				c-0.1,0.4-0.2,1.1-0.2,2.2V22.7z M74.1,19.4c0,0.7,0.2,1.2,0.5,1.5c0.3,0.4,0.7,0.5,1.2,0.5s0.9-0.2,1.2-0.5
				c0.3-0.4,0.5-0.9,0.5-1.5c0-0.7-0.2-1.2-0.5-1.5c-0.3-0.4-0.7-0.5-1.2-0.5s-0.9,0.2-1.2,0.5C74.3,18.2,74.1,18.7,74.1,19.4z
				 M72.2,19.3c0-0.6,0.2-1.2,0.5-1.7s0.7-1,1.3-1.3s1.2-0.4,1.9-0.4c1.1,0,1.9,0.3,2.6,1c0.7,0.7,1,1.5,1,2.5c0,1-0.3,1.8-1,2.5
				c-0.7,0.7-1.5,1-2.6,1c-0.6,0-1.2-0.1-1.8-0.4c-0.6-0.3-1-0.7-1.3-1.2C72.4,20.7,72.2,20,72.2,19.3z M71.9,16v1.4h-1.3v2.7
				c0,0.5,0,0.9,0,0.9c0,0.1,0.1,0.2,0.2,0.2s0.2,0.1,0.3,0.1c0.2,0,0.4-0.1,0.7-0.2l0.2,1.4c-0.4,0.2-0.9,0.3-1.5,0.3
				c-0.3,0-0.6-0.1-0.9-0.2c-0.3-0.1-0.5-0.2-0.6-0.4c-0.1-0.2-0.2-0.4-0.3-0.7c0-0.2-0.1-0.6-0.1-1.2v-2.9H68V16h0.8v-1.3l1.9-1V16
				H71.9z M59.8,19.7l1.9-0.2c0.1,0.6,0.3,1.1,0.7,1.3c0.3,0.3,0.8,0.4,1.4,0.4c0.6,0,1.1-0.1,1.4-0.4c0.3-0.3,0.5-0.5,0.5-0.9
				c0-0.2-0.1-0.4-0.2-0.6c-0.1-0.2-0.4-0.3-0.7-0.4c-0.2-0.1-0.7-0.2-1.6-0.4c-1-0.2-1.8-0.5-2.2-0.9c-0.6-0.5-0.9-1.1-0.9-1.8
				c0-0.5,0.1-0.9,0.4-1.3c0.3-0.4,0.7-0.7,1.2-0.9s1.2-0.3,1.9-0.3c1.2,0,2.1,0.3,2.7,0.8s0.9,1.2,1,2l-1.9,0.1
				c-0.1-0.5-0.3-0.8-0.5-1c-0.3-0.2-0.7-0.3-1.2-0.3c-0.6,0-1,0.1-1.3,0.3c-0.2,0.1-0.3,0.3-0.3,0.6c0,0.2,0.1,0.4,0.3,0.6
				c0.2,0.2,0.8,0.4,1.8,0.6c0.9,0.2,1.6,0.4,2.1,0.7c0.5,0.2,0.8,0.5,1.1,0.9c0.3,0.4,0.4,0.9,0.4,1.5c0,0.5-0.2,1-0.5,1.5
				c-0.3,0.5-0.7,0.8-1.3,1c-0.6,0.2-1.3,0.3-2.1,0.3c-1.2,0-2.2-0.3-2.8-0.8C60.3,21.5,59.9,20.7,59.8,19.7z M51.2,19.2
				c0,0.7,0.2,1.3,0.5,1.7c0.3,0.4,0.7,0.5,1.1,0.5c0.4,0,0.8-0.2,1.1-0.5c0.3-0.3,0.4-0.9,0.4-1.6c0-0.7-0.1-1.2-0.4-1.6
				c-0.3-0.3-0.7-0.5-1.1-0.5c-0.5,0-0.8,0.2-1.1,0.5C51.3,18.1,51.2,18.6,51.2,19.2z M49.4,16h1.7v1c0.2-0.3,0.5-0.6,0.9-0.8
				c0.4-0.2,0.8-0.3,1.3-0.3c0.8,0,1.5,0.3,2.1,0.9c0.6,0.6,0.8,1.5,0.8,2.5c0,1.1-0.3,2-0.9,2.6c-0.6,0.6-1.3,0.9-2.1,0.9
				c-0.4,0-0.7-0.1-1-0.2c-0.3-0.1-0.6-0.4-1-0.8v3.4h-1.8V16z M43.5,19.2c0,0.7,0.2,1.3,0.5,1.7c0.3,0.4,0.7,0.5,1.1,0.5
				c0.4,0,0.8-0.2,1.1-0.5s0.4-0.9,0.4-1.6c0-0.7-0.1-1.2-0.4-1.6c-0.3-0.3-0.7-0.5-1.1-0.5c-0.5,0-0.8,0.2-1.1,0.5
				C43.7,18.1,43.5,18.6,43.5,19.2z M41.7,16h1.7v1c0.2-0.3,0.5-0.6,0.9-0.8c0.4-0.2,0.8-0.3,1.3-0.3c0.8,0,1.5,0.3,2.1,0.9
				c0.6,0.6,0.8,1.5,0.8,2.5c0,1.1-0.3,2-0.9,2.6c-0.6,0.6-1.3,0.9-2.1,0.9c-0.4,0-0.7-0.1-1-0.2c-0.3-0.1-0.6-0.4-1-0.8v3.4h-1.8
				V16z M37.7,19l-1.3-3.4L35.1,19H37.7z M41.3,22.7h-2.1l-0.8-2.1h-3.9l-0.8,2.1h-2.1l3.8-9.2h2.1L41.3,22.7z"/>
		</defs>
		<clipPath id="SVGID_26_">
			<use xlink:href="#SVGID_25_"  style="overflow:visible;"/>
		</clipPath>
		<g class="st14">
			<defs>
				<rect id="SVGID_27_" x="-206" y="-433" width="375" height="812"/>
			</defs>
			<clipPath id="SVGID_28_">
				<use xlink:href="#SVGID_27_"  style="overflow:visible;"/>
			</clipPath>
			<rect x="26.6" y="8.3" class="st15" width="69.4" height="21.9"/>
		</g>
	</g>
</g>
</svg>
