<?xml version="1.0" encoding="utf-8"?>
<!-- Generator: Adobe Illustrator 22.0.1, SVG Export Plug-In . SVG Version: 6.00 Build 0)  -->
<svg version="1.1" id="레이어_1" xmlns="http://www.w3.org/2000/svg" xmlns:xlink="http://www.w3.org/1999/xlink" x="0px"
	 y="0px" viewBox="0 0 100 30.5" style="enable-background:new 0 0 100 30.5;" xml:space="preserve">
<style type="text/css">
	.st0{clip-path:url(#SVGID_2_);}
	.st1{clip-path:url(#SVGID_4_);fill:#6D717F;}
	.st2{clip-path:url(#SVGID_6_);}
	.st3{clip-path:url(#SVGID_8_);fill:#6D717F;}
	.st4{clip-path:url(#SVGID_10_);}
	.st5{clip-path:url(#SVGID_12_);fill:#6D717F;}
</style>
<g>
	<defs>
		<path id="SVGID_1_" d="M21.3,16.2L6.7,24.2c-0.5,0.3-1.1,0.1-1.4-0.4c-0.1-0.2-0.1-0.3-0.1-0.5V7.2c0-0.6,0.5-1,1-1
			c0.2,0,0.4,0,0.5,0.1l14.5,8.1c0.5,0.3,0.7,0.9,0.4,1.4C21.5,15.9,21.4,16.1,21.3,16.2z"/>
	</defs>
	<clipPath id="SVGID_2_">
		<use xlink:href="#SVGID_1_"  style="overflow:visible;"/>
	</clipPath>
	<g class="st0">
		<defs>
			<rect id="SVGID_3_" x="-205" y="-494" width="375" height="812"/>
		</defs>
		<clipPath id="SVGID_4_">
			<use xlink:href="#SVGID_3_"  style="overflow:visible;"/>
		</clipPath>
		<rect x="0.2" y="1.2" class="st1" width="26.6" height="28.2"/>
	</g>
</g>
<g>
	<defs>
		<path id="SVGID_5_" d="M45.7,10.7V7.7h0.5v0.4c0.2-0.3,0.5-0.5,1-0.5c0.2,0,0.3,0,0.5,0.1s0.3,0.1,0.3,0.2s0.1,0.2,0.2,0.4
			c0,0.1,0,0.3,0,0.5v1.8h-0.5V8.9c0-0.2,0-0.4-0.1-0.5c0-0.1-0.1-0.2-0.2-0.2c-0.1-0.1-0.2-0.1-0.4-0.1c-0.2,0-0.4,0.1-0.6,0.2
			c-0.2,0.1-0.2,0.4-0.2,0.8v1.6H45.7z M42.9,9.2c0,0.4,0.1,0.7,0.3,0.8c0.2,0.2,0.4,0.3,0.6,0.3c0.3,0,0.5-0.1,0.6-0.3
			c0.2-0.2,0.3-0.5,0.3-0.9c0-0.4-0.1-0.6-0.3-0.8c-0.2-0.2-0.4-0.3-0.6-0.3c-0.3,0-0.5,0.1-0.6,0.3C43,8.6,42.9,8.8,42.9,9.2z
			 M42.4,9.2c0-0.5,0.2-0.9,0.5-1.2c0.3-0.2,0.6-0.3,0.9-0.3c0.4,0,0.8,0.1,1,0.4c0.3,0.3,0.4,0.6,0.4,1.1c0,0.4-0.1,0.7-0.2,0.9
			c-0.1,0.2-0.3,0.4-0.5,0.5c-0.2,0.1-0.5,0.2-0.7,0.2c-0.4,0-0.8-0.1-1-0.4C42.5,10.1,42.4,9.7,42.4,9.2z M40.7,10.2l0.1,0.4
			c-0.1,0-0.3,0-0.4,0c-0.2,0-0.3,0-0.4-0.1c-0.1-0.1-0.2-0.1-0.2-0.2s-0.1-0.3-0.1-0.6V8.1h-0.4V7.7h0.4V7l0.5-0.3v1h0.5v0.4h-0.5
			v1.7c0,0.1,0,0.2,0,0.3c0,0,0,0.1,0.1,0.1c0,0,0.1,0,0.2,0C40.6,10.3,40.6,10.2,40.7,10.2z M38.5,10.7V7.7H39v2.9H38.5z M38.5,7.2
			V6.6H39v0.6H38.5z M36.6,10.2l0.1,0.4c-0.1,0-0.3,0-0.4,0c-0.2,0-0.3,0-0.4-0.1c-0.1-0.1-0.2-0.1-0.2-0.2s-0.1-0.3-0.1-0.6V8.1
			h-0.4V7.7h0.4V7l0.5-0.3v1h0.5v0.4h-0.5v1.7c0,0.1,0,0.2,0,0.3c0,0,0,0.1,0.1,0.1c0,0,0.1,0,0.2,0C36.4,10.3,36.5,10.2,36.6,10.2z
			 M32.8,8.9h1.7c0-0.2-0.1-0.4-0.2-0.6c-0.2-0.2-0.4-0.3-0.6-0.3c-0.2,0-0.4,0.1-0.6,0.2C32.9,8.5,32.8,8.7,32.8,8.9z M34.5,9.7
			L35,9.8c-0.1,0.3-0.2,0.5-0.5,0.7c-0.2,0.2-0.5,0.2-0.9,0.2c-0.4,0-0.8-0.1-1.1-0.4c-0.3-0.3-0.4-0.6-0.4-1.1
			c0-0.5,0.1-0.9,0.4-1.1c0.3-0.3,0.6-0.4,1-0.4c0.4,0,0.7,0.1,1,0.4C34.9,8.3,35,8.7,35,9.2c0,0,0,0.1,0,0.1h-2.3
			c0,0.3,0.1,0.6,0.3,0.7c0.2,0.2,0.4,0.3,0.6,0.3c0.2,0,0.3,0,0.5-0.1C34.3,10.1,34.4,9.9,34.5,9.7z M30,9.1V8.6l1.8,0v1.5
			c-0.3,0.2-0.6,0.4-0.8,0.5c-0.3,0.1-0.6,0.2-0.9,0.2c-0.4,0-0.8-0.1-1.1-0.3c-0.3-0.2-0.6-0.4-0.8-0.7c-0.2-0.3-0.3-0.7-0.3-1.1
			c0-0.4,0.1-0.8,0.3-1.1c0.2-0.3,0.4-0.6,0.7-0.8c0.3-0.2,0.7-0.2,1.1-0.2c0.3,0,0.6,0,0.8,0.1c0.2,0.1,0.4,0.2,0.6,0.4
			c0.1,0.2,0.2,0.4,0.3,0.7l-0.5,0.1c-0.1-0.2-0.1-0.4-0.2-0.5c-0.1-0.1-0.2-0.2-0.4-0.3C30.4,7.1,30.2,7,30,7c-0.3,0-0.5,0-0.7,0.1
			c-0.2,0.1-0.3,0.2-0.4,0.3c-0.1,0.1-0.2,0.3-0.3,0.4c-0.1,0.3-0.2,0.5-0.2,0.8c0,0.4,0.1,0.7,0.2,0.9s0.3,0.4,0.6,0.5
			c0.2,0.1,0.5,0.2,0.8,0.2c0.2,0,0.5,0,0.7-0.1c0.2-0.1,0.4-0.2,0.5-0.3V9.1H30z"/>
	</defs>
	<clipPath id="SVGID_6_">
		<use xlink:href="#SVGID_5_"  style="overflow:visible;"/>
	</clipPath>
	<g class="st2">
		<defs>
			<rect id="SVGID_7_" x="-205" y="-494" width="375" height="812"/>
		</defs>
		<clipPath id="SVGID_8_">
			<use xlink:href="#SVGID_7_"  style="overflow:visible;"/>
		</clipPath>
		<rect x="22.9" y="1.6" class="st3" width="30.2" height="14.2"/>
	</g>
</g>
<g>
	<defs>
		<path id="SVGID_9_" d="M87.7,15.7h1.9l1.6,4.5l1.5-4.5h1.8l-2.3,6.1l-0.4,1.1c-0.2,0.4-0.3,0.7-0.4,0.9c-0.1,0.2-0.3,0.4-0.5,0.5
			c-0.2,0.1-0.4,0.2-0.7,0.3s-0.6,0.1-0.9,0.1c-0.3,0-0.7,0-1-0.1l-0.2-1.3c0.3,0.1,0.5,0.1,0.7,0.1c0.4,0,0.7-0.1,0.9-0.3
			s0.3-0.5,0.4-0.9L87.7,15.7z M85.7,19c-0.2,0.1-0.6,0.2-1.1,0.3s-0.8,0.2-0.9,0.3c-0.2,0.2-0.3,0.4-0.3,0.6c0,0.2,0.1,0.4,0.3,0.6
			c0.2,0.2,0.4,0.3,0.7,0.3c0.3,0,0.6-0.1,0.9-0.3c0.2-0.2,0.3-0.3,0.4-0.6c0-0.1,0.1-0.4,0.1-0.8V19z M83.3,17.6l-1.6-0.3
			c0.2-0.6,0.5-1.1,0.9-1.4c0.4-0.3,1.1-0.4,1.9-0.4c0.8,0,1.4,0.1,1.7,0.3c0.4,0.2,0.6,0.4,0.8,0.7c0.2,0.3,0.2,0.8,0.2,1.5l0,2
			c0,0.6,0,1,0.1,1.2c0.1,0.3,0.2,0.6,0.3,0.9H86c0-0.1-0.1-0.3-0.2-0.5c0-0.1,0-0.2-0.1-0.2c-0.3,0.3-0.6,0.5-1,0.6
			c-0.3,0.1-0.7,0.2-1.1,0.2c-0.7,0-1.2-0.2-1.6-0.5c-0.4-0.4-0.6-0.8-0.6-1.4c0-0.4,0.1-0.7,0.3-1c0.2-0.3,0.4-0.5,0.7-0.6
			c0.3-0.2,0.8-0.3,1.4-0.4c0.8-0.1,1.4-0.3,1.7-0.4v-0.2c0-0.3-0.1-0.6-0.2-0.7c-0.2-0.1-0.5-0.2-0.9-0.2c-0.3,0-0.6,0.1-0.7,0.2
			C83.6,17.1,83.4,17.3,83.3,17.6z M79,22v-8.8h1.7V22H79z M72.9,14.7v2.5h1c0.7,0,1.2,0,1.4-0.1s0.4-0.2,0.6-0.4
			c0.1-0.2,0.2-0.4,0.2-0.7c0-0.3-0.1-0.6-0.3-0.8c-0.2-0.2-0.4-0.3-0.7-0.4c-0.2,0-0.7-0.1-1.3-0.1H72.9z M71.1,22v-8.8H74
			c1.1,0,1.8,0,2.2,0.1c0.5,0.1,1,0.4,1.3,0.9s0.5,1,0.5,1.7c0,0.5-0.1,1-0.3,1.4c-0.2,0.4-0.5,0.7-0.8,0.9c-0.3,0.2-0.6,0.3-1,0.4
			c-0.4,0.1-1.1,0.1-1.9,0.1h-1.2V22H71.1z M65.4,18.3c0-0.5-0.1-0.9-0.4-1.1c-0.2-0.3-0.5-0.4-0.9-0.4c-0.4,0-0.7,0.1-0.9,0.4
			c-0.2,0.3-0.4,0.6-0.4,1.1H65.4z M65.3,20l1.7,0.3c-0.2,0.6-0.6,1.1-1.1,1.4c-0.5,0.3-1.1,0.5-1.8,0.5c-1.1,0-2-0.4-2.5-1.1
			c-0.4-0.6-0.6-1.3-0.6-2.2c0-1.1,0.3-1.9,0.9-2.5s1.3-0.9,2.2-0.9c1,0,1.7,0.3,2.3,0.9c0.6,0.6,0.8,1.6,0.8,2.9h-4.4
			c0,0.5,0.2,0.9,0.4,1.2c0.3,0.3,0.6,0.4,1,0.4c0.3,0,0.5-0.1,0.7-0.2C65.1,20.6,65.3,20.3,65.3,20z M58.5,22v-8.8h1.7V22H58.5z
			 M52.7,18.7c0,0.7,0.1,1.2,0.4,1.5s0.6,0.5,1,0.5c0.4,0,0.8-0.2,1.1-0.5c0.3-0.3,0.4-0.8,0.4-1.4c0-0.7-0.1-1.2-0.4-1.5
			s-0.6-0.5-1.1-0.5c-0.4,0-0.8,0.2-1,0.5C52.8,17.6,52.7,18.1,52.7,18.7z M51.1,22.5l2,0.2c0,0.2,0.1,0.4,0.2,0.5
			c0.2,0.1,0.4,0.2,0.8,0.2c0.5,0,0.8-0.1,1-0.2c0.2-0.1,0.3-0.2,0.3-0.4c0.1-0.1,0.1-0.4,0.1-0.8V21c-0.5,0.7-1.2,1-2,1
			c-0.9,0-1.6-0.4-2.1-1.1c-0.4-0.6-0.6-1.3-0.6-2.1c0-1.1,0.3-1.9,0.8-2.5c0.5-0.6,1.2-0.8,2-0.8c0.8,0,1.5,0.3,2,1v-0.9h1.6v5.7
			c0,0.8-0.1,1.3-0.2,1.7c-0.1,0.4-0.3,0.7-0.5,0.9c-0.2,0.2-0.5,0.4-0.9,0.5c-0.4,0.1-0.9,0.2-1.5,0.2c-1.1,0-1.9-0.2-2.4-0.6
			c-0.5-0.4-0.7-0.8-0.7-1.4C51.1,22.6,51.1,22.5,51.1,22.5z M45.5,18.9c0,0.6,0.2,1.1,0.5,1.5c0.3,0.3,0.7,0.5,1.1,0.5
			c0.5,0,0.8-0.2,1.1-0.5c0.3-0.3,0.5-0.8,0.5-1.5c0-0.6-0.2-1.1-0.5-1.4c-0.3-0.3-0.7-0.5-1.1-0.5c-0.5,0-0.8,0.2-1.1,0.5
			C45.6,17.7,45.5,18.2,45.5,18.9z M43.7,18.8c0-0.6,0.1-1.1,0.4-1.6c0.3-0.5,0.7-0.9,1.2-1.2c0.5-0.3,1.1-0.4,1.7-0.4
			c1,0,1.8,0.3,2.4,0.9c0.6,0.6,1,1.4,1,2.4c0,1-0.3,1.8-1,2.4c-0.6,0.6-1.4,1-2.4,1c-0.6,0-1.2-0.1-1.7-0.4c-0.5-0.3-1-0.7-1.2-1.2
			C43.8,20.1,43.7,19.5,43.7,18.8z M38.2,18.9c0,0.6,0.2,1.1,0.5,1.5c0.3,0.3,0.7,0.5,1.1,0.5c0.5,0,0.8-0.2,1.1-0.5
			s0.5-0.8,0.5-1.5c0-0.6-0.2-1.1-0.5-1.4s-0.7-0.5-1.1-0.5c-0.5,0-0.8,0.2-1.1,0.5C38.4,17.7,38.2,18.2,38.2,18.9z M36.4,18.8
			c0-0.6,0.1-1.1,0.4-1.6c0.3-0.5,0.7-0.9,1.2-1.2c0.5-0.3,1.1-0.4,1.7-0.4c1,0,1.8,0.3,2.4,0.9c0.6,0.6,1,1.4,1,2.4
			c0,1-0.3,1.8-1,2.4c-0.6,0.6-1.4,1-2.4,1c-0.6,0-1.2-0.1-1.7-0.4c-0.5-0.3-1-0.7-1.2-1.2C36.6,20.1,36.4,19.5,36.4,18.8z
			 M31.7,18.8v-1.5h3.9v3.5c-0.4,0.4-0.9,0.7-1.7,1c-0.7,0.3-1.5,0.4-2.2,0.4c-0.9,0-1.8-0.2-2.5-0.6c-0.7-0.4-1.2-0.9-1.6-1.7
			c-0.4-0.7-0.5-1.5-0.5-2.3c0-0.9,0.2-1.7,0.6-2.4c0.4-0.7,1-1.3,1.7-1.6c0.6-0.3,1.3-0.4,2.2-0.4c1.1,0,2,0.2,2.6,0.7
			c0.6,0.5,1,1.1,1.2,1.9L33.7,16c-0.1-0.4-0.4-0.8-0.7-1c-0.4-0.3-0.8-0.4-1.3-0.4c-0.8,0-1.4,0.2-1.9,0.7
			c-0.5,0.5-0.7,1.2-0.7,2.2c0,1,0.2,1.8,0.7,2.4c0.5,0.5,1.1,0.8,1.9,0.8c0.4,0,0.8-0.1,1.2-0.2c0.4-0.1,0.7-0.3,1-0.5v-1.1H31.7z"
			/>
	</defs>
	<clipPath id="SVGID_10_">
		<use xlink:href="#SVGID_9_"  style="overflow:visible;"/>
	</clipPath>
	<g class="st4">
		<defs>
			<rect id="SVGID_11_" x="-205" y="-494" width="375" height="812"/>
		</defs>
		<clipPath id="SVGID_12_">
			<use xlink:href="#SVGID_11_"  style="overflow:visible;"/>
		</clipPath>
		<rect x="22.2" y="8.1" class="st5" width="77.3" height="21.5"/>
	</g>
</g>
</svg>
